<svg width="100" height="100" fill="currentColor" stroke="none" class="w-full h-full" viewBox="0 0 512 512" xmlns="http://www.w3.org/2000/svg"> <path d="m296.625 25.406c-63.794.388-135.81 14.683-206.03 32.844-3.472 34.08 2.226 68.906 14.03 104.25 76.55-86.564 289.025-117.675 382.095-34.5-30.7-77.534-102.674-103.126-190.096-102.594zm-230.97 36.032-37.749 9.562c5.643 78.022 28.546 132.393 60.44 174.47-16.54 10.348-40.693 19.673-68.782 26.843 5.664 6.597 14.25 16.18 30.53 18.53 24.846-4.33 39.912-14.982 53.75-26.593 76.24 85.145 190.22 118.955 253.126 224.22l49.436-.126c-115.41-213.028-325.396-123.54-340.75-426.906z" /></svg>
