<svg class="full" fill="currentColor" viewBox="0 0 297 297" xmlns="http://www.w3.org/2000/svg"><path d="m30.487 198.884c1.955-1.954 3.079-4.666 3.079-7.43 0-2.775-1.124-5.476-3.079-7.431s-4.656-3.079-7.431-3.079c-2.774 0-5.476 1.124-7.43 3.079-1.955 1.955-3.08 4.656-3.08 7.431 0 2.764 1.125 5.476 3.08 7.43 1.954 1.955 4.666 3.08 7.43 3.08 2.764.001 5.476-1.124 7.431-3.08z"/><path d="m40.398 167.28c2.764 0 5.476-1.125 7.431-3.08 1.955-1.954 3.079-4.666 3.079-7.43s-1.124-5.476-3.079-7.431-4.667-3.079-7.431-3.079-5.476 1.124-7.43 3.079c-1.955 1.955-3.08 4.667-3.08 7.431s1.125 5.476 3.08 7.43c1.954 1.955 4.666 3.08 7.43 3.08z"/><path d="m75.083 250.313c-2.764 0-5.476 1.114-7.43 3.079-1.955 1.955-3.08 4.667-3.08 7.431s1.125 5.476 3.08 7.43c1.954 1.955 4.666 3.08 7.43 3.08s5.476-1.125 7.431-3.08c1.955-1.954 3.079-4.666 3.079-7.43s-1.124-5.476-3.079-7.431c-1.956-1.966-4.667-3.079-7.431-3.079z"/><path d="m102.778 275.979c-2.764 0-5.476 1.124-7.431 3.079s-3.079 4.667-3.079 7.431 1.124 5.476 3.079 7.43c1.955 1.955 4.667 3.08 7.431 3.08 2.774 0 5.476-1.125 7.43-3.08 1.966-1.954 3.08-4.666 3.08-7.43s-1.115-5.476-3.08-7.431c-1.954-1.955-4.655-3.079-7.43-3.079z"/><path d="m109.767 232.971c-2.764 0-5.476 1.124-7.43 3.079-1.955 1.955-3.08 4.667-3.08 7.431s1.125 5.476 3.08 7.43c1.954 1.955 4.666 3.08 7.43 3.08s5.476-1.125 7.431-3.08c1.955-1.954 3.079-4.666 3.079-7.43s-1.124-5.476-3.079-7.431c-1.955-1.956-4.667-3.079-7.431-3.079z"/><path d="m68.251 208.796c0-2.764-1.124-5.476-3.079-7.431s-4.667-3.079-7.431-3.079-5.476 1.124-7.43 3.079c-1.955 1.955-3.08 4.667-3.08 7.431s1.125 5.476 3.08 7.43c1.954 1.955 4.666 3.08 7.43 3.08s5.476-1.125 7.431-3.08c1.955-1.965 3.079-4.665 3.079-7.43z"/><path d="m40.398 232.971c-2.764 0-5.476 1.124-7.43 3.079-1.955 1.955-3.08 4.667-3.08 7.431s1.125 5.476 3.08 7.43c1.954 1.955 4.666 3.08 7.43 3.08s5.476-1.125 7.431-3.08c1.955-1.954 3.079-4.666 3.079-7.43s-1.124-5.476-3.079-7.431c-1.955-1.956-4.667-3.079-7.431-3.079z"/><path d="m33.409 275.979c-2.764 0-5.476 1.124-7.431 3.079s-3.079 4.667-3.079 7.431 1.124 5.476 3.079 7.43c1.955 1.955 4.667 3.08 7.431 3.08 2.774 0 5.476-1.125 7.43-3.08 1.966-1.954 3.08-4.666 3.08-7.43s-1.115-5.476-3.08-7.431c-1.954-1.955-4.655-3.079-7.43-3.079z"/><path d="m209.814 75.144c-3.95-4.004-9.17-6.008-14.405-6.008-5.184 0-10.381 1.965-14.376 5.9-1.492 1.468-2.705 3.104-3.652 4.847-.903-1.755-2.088-3.397-3.547-4.871-3.949-4.004-9.169-6.008-14.404-6.008-5.184 0-10.383 1.965-14.38 5.899-8.027 7.91-8.162 20.781-.298 28.746 1.453 1.478 3.085 2.683 4.828 3.613-1.761.922-3.416 2.112-4.9 3.578-8.037 7.906-8.172 20.779-.304 28.742 3.949 4.004 9.169 6.008 14.405 6.008 5.184 0 10.383-1.965 14.38-5.9 1.488-1.466 2.702-3.102 3.648-4.847.911 1.755 2.088 3.4 3.545 4.878 3.95 4.002 9.169 6.005 14.402 6.005 5.185 0 10.384-1.965 14.378-5.9 8.035-7.91 8.172-20.776.304-28.748-1.453-1.48-3.087-2.677-4.83-3.609 1.761-.924 3.418-2.112 4.906-3.58 8.027-7.907 8.165-20.776.3-28.745zm-14.629 50.311c-4.843 4.843-11.281 7.511-18.128 7.511-6.833 0-13.254-2.659-18.08-7.484-4.839-4.837-7.499-11.272-7.49-18.12.01-6.833 2.677-13.259 7.512-18.094 4.845-4.845 11.283-7.513 18.129-7.513 6.833 0 13.256 2.66 18.081 7.487 4.84 4.838 7.499 11.273 7.489 18.12-.009 6.832-2.678 13.257-7.513 18.093z"/><path d="m177.129 94.368c-3.331 0-6.665 1.273-9.211 3.819-5.081 5.081-5.093 13.308-.025 18.375 2.529 2.529 5.844 3.792 9.163 3.792 3.331 0 6.666-1.273 9.209-3.817 5.083-5.083 5.095-13.308.027-18.375-2.528-2.53-5.844-3.794-9.163-3.794z"/><path d="m59.151 119.97c-.83-1.627-1.376-3.357-1.65-5.121l-7.953 7.952c-3.084 3.083-3.831 7.804-1.848 11.688 22.928 44.927 57.335 79.333 102.263 102.263 1.45.74 3.016 1.099 4.571 1.099 2.61 0 5.185-1.014 7.118-2.947l7.949-7.948c-1.778-.281-3.514-.835-5.117-1.654-46.274-23.62-81.713-59.059-105.333-105.332z"/><path d="m284.112 103.958c-23.234-45.521-58.096-80.383-103.617-103.615-.45-.23-.941-.343-1.432-.343-.589 0-1.177.163-1.689.488-50.292 31.825-75.33 56.862-107.158 107.157-.592.937-.648 2.133-.144 3.12 23.235 45.518 58.097 80.38 103.617 103.617.984.502 2.189.445 3.122-.146 50.292-31.824 75.329-56.861 107.156-107.158.594-.937.649-2.133.145-3.12zm-56.249 21.535c-.063 8.827-3.572 17.109-9.878 23.316-6.237 6.143-14.487 9.527-23.229 9.527-6.532 0-12.759-1.882-18.071-5.391-5.297 3.42-11.468 5.255-17.905 5.255-8.869 0-17.173-3.468-23.376-9.756-6.159-6.233-9.516-14.499-9.454-23.276.046-6.522 1.973-12.745 5.513-18.047-3.408-5.318-5.201-11.52-5.134-17.999.091-8.784 3.596-17.024 9.872-23.209 6.239-6.142 14.488-9.524 23.228-9.524 6.538 0 12.769 1.885 18.074 5.39 5.297-3.422 11.468-5.257 17.906-5.257 8.868 0 17.172 3.468 23.382 9.762 6.182 6.265 9.536 14.571 9.444 23.387-.068 6.476-1.991 12.657-5.509 17.931 3.39 5.29 5.183 11.454 5.137 17.891z"/></svg>