<svg fill="currentColor" stroke="none" class="full" height="800" viewBox="0 0 382.421 382.422" width="800" xmlns="http://www.w3.org/2000/svg"><path d="m297.209 80.934v-29.574h-213.862v28.365c-22.312 14.323-33.62 37.431-33.62 68.758v145.688c0 58.56 40.534 88.251 120.473 88.251h42.023c79.936 0 120.472-29.691 120.472-88.251v-145.689c0-30.224-11.935-52.922-35.486-67.548zm18.676 213.241c0 48.076-33.905 71.442-103.662 71.442h-42.023c-69.757 0-103.662-23.366-103.662-71.442v-145.686c0-27.115 9.588-45.651 29.311-56.667l4.309-2.405v-21.247h180.242v22.569l4.371 2.394c20.937 11.453 31.114 29.558 31.114 55.35zm-237.787-266.859v-16.109c0-6.186 5.02-11.207 11.206-11.207h203.819c6.187 0 11.206 5.021 11.206 11.207v16.109c0 6.187-5.02 11.207-11.206 11.207h-203.819c-6.191-.001-11.206-5.021-11.206-11.207zm-.354 150.275h226.936v91.051h-226.936z" /></svg>